<mxfile host="app.diagrams.net" modified="2023-05-24T13:37:21.682Z" agent="Mozilla/5.0 (Windows NT 10.0; Win64; x64) AppleWebKit/537.36 (KHTML, like Gecko) Chrome/113.0.0.0 Safari/537.36" version="21.3.3" etag="90rLT3bu5krqq45EZGpi" type="device">
  <diagram id="RcBhQchs6RbdOINemzcs" name="Pagina-1">
    <mxGraphModel dx="891" dy="778" grid="1" gridSize="10" guides="1" tooltips="1" connect="1" arrows="1" fold="1" page="1" pageScale="1" pageWidth="827" pageHeight="1169" math="0" shadow="0">
      <root>
        <mxCell id="0" />
        <mxCell id="1" parent="0" />
        <mxCell id="L2sYMgE7h-koRApQre-6-6" value="" style="edgeStyle=orthogonalEdgeStyle;rounded=0;orthogonalLoop=1;jettySize=auto;html=1;" edge="1" parent="1" source="L2sYMgE7h-koRApQre-6-2" target="L2sYMgE7h-koRApQre-6-5">
          <mxGeometry relative="1" as="geometry" />
        </mxCell>
        <mxCell id="L2sYMgE7h-koRApQre-6-2" value="START" style="ellipse;whiteSpace=wrap;html=1;fillColor=#ffe6cc;strokeColor=#d79b00;" vertex="1" parent="1">
          <mxGeometry x="354" y="140" width="120" height="80" as="geometry" />
        </mxCell>
        <mxCell id="L2sYMgE7h-koRApQre-6-8" value="NO" style="edgeStyle=orthogonalEdgeStyle;rounded=0;orthogonalLoop=1;jettySize=auto;html=1;" edge="1" parent="1" source="L2sYMgE7h-koRApQre-6-5" target="L2sYMgE7h-koRApQre-6-7">
          <mxGeometry relative="1" as="geometry" />
        </mxCell>
        <mxCell id="L2sYMgE7h-koRApQre-6-12" value="SI" style="edgeStyle=orthogonalEdgeStyle;rounded=0;orthogonalLoop=1;jettySize=auto;html=1;" edge="1" parent="1" source="L2sYMgE7h-koRApQre-6-5" target="L2sYMgE7h-koRApQre-6-11">
          <mxGeometry relative="1" as="geometry" />
        </mxCell>
        <mxCell id="L2sYMgE7h-koRApQre-6-5" value="&lt;font style=&quot;font-size: 14px;&quot;&gt;C&#39;Ã¨ ancora qualche parente?&lt;/font&gt;" style="rhombus;whiteSpace=wrap;html=1;" vertex="1" parent="1">
          <mxGeometry x="327" y="290" width="174" height="140" as="geometry" />
        </mxCell>
        <mxCell id="L2sYMgE7h-koRApQre-6-7" value="END" style="ellipse;whiteSpace=wrap;html=1;fillColor=#ffe6cc;strokeColor=#d79b00;" vertex="1" parent="1">
          <mxGeometry x="100" y="335" width="100" height="50" as="geometry" />
        </mxCell>
        <mxCell id="L2sYMgE7h-koRApQre-6-14" value="NO" style="edgeStyle=orthogonalEdgeStyle;rounded=0;orthogonalLoop=1;jettySize=auto;html=1;" edge="1" parent="1" source="L2sYMgE7h-koRApQre-6-11" target="L2sYMgE7h-koRApQre-6-13">
          <mxGeometry relative="1" as="geometry" />
        </mxCell>
        <mxCell id="L2sYMgE7h-koRApQre-6-17" value="SI&lt;br&gt;" style="edgeStyle=orthogonalEdgeStyle;rounded=0;orthogonalLoop=1;jettySize=auto;html=1;exitX=1;exitY=0.5;exitDx=0;exitDy=0;entryX=1;entryY=0.5;entryDx=0;entryDy=0;" edge="1" parent="1" source="L2sYMgE7h-koRApQre-6-11" target="L2sYMgE7h-koRApQre-6-5">
          <mxGeometry relative="1" as="geometry">
            <Array as="points">
              <mxPoint x="620" y="565" />
              <mxPoint x="620" y="360" />
            </Array>
          </mxGeometry>
        </mxCell>
        <mxCell id="L2sYMgE7h-koRApQre-6-11" value="Ci sono tutti i posti nella tavola?" style="rhombus;whiteSpace=wrap;html=1;" vertex="1" parent="1">
          <mxGeometry x="322" y="500" width="184" height="130" as="geometry" />
        </mxCell>
        <mxCell id="L2sYMgE7h-koRApQre-6-13" value="Aggiungi un posto" style="whiteSpace=wrap;html=1;" vertex="1" parent="1">
          <mxGeometry x="90" y="535" width="120" height="60" as="geometry" />
        </mxCell>
      </root>
    </mxGraphModel>
  </diagram>
</mxfile>
